<svg width="30" height="30" viewBox="0 0 30 30" fill="none" xmlns="http://www.w3.org/2000/svg">
<mask id="path-1-inside-1" fill="white">
<path fill-rule="evenodd" clip-rule="evenodd" d="M1.875 15C1.875 18.481 3.25781 21.8194 5.71922 24.2808C8.18064 26.7422 11.519 28.125 15 28.125C18.481 28.125 21.8194 26.7422 24.2808 24.2808C26.7422 21.8194 28.125 18.481 28.125 15C28.125 11.519 26.7422 8.18064 24.2808 5.71922C21.8194 3.25781 18.481 1.875 15 1.875C11.519 1.875 8.18064 3.25781 5.71922 5.71922C3.25781 8.18064 1.875 11.519 1.875 15V15ZM30 15C30 18.9782 28.4196 22.7936 25.6066 25.6066C22.7936 28.4196 18.9782 30 15 30C11.0218 30 7.20644 28.4196 4.3934 25.6066C1.58035 22.7936 0 18.9782 0 15C0 11.0218 1.58035 7.20644 4.3934 4.3934C7.20644 1.58035 11.0218 0 15 0C18.9782 0 22.7936 1.58035 25.6066 4.3934C28.4196 7.20644 30 11.0218 30 15V15ZM8.4375 14.0625C8.18886 14.0625 7.9504 14.1613 7.77459 14.3371C7.59877 14.5129 7.5 14.7514 7.5 15C7.5 15.2486 7.59877 15.4871 7.77459 15.6629C7.9504 15.8387 8.18886 15.9375 8.4375 15.9375H19.2994L15.2737 19.9612C15.1866 20.0484 15.1174 20.1519 15.0703 20.2658C15.0231 20.3797 14.9988 20.5017 14.9988 20.625C14.9988 20.7483 15.0231 20.8703 15.0703 20.9842C15.1174 21.0981 15.1866 21.2016 15.2737 21.2888C15.3609 21.3759 15.4644 21.4451 15.5783 21.4922C15.6922 21.5394 15.8142 21.5637 15.9375 21.5637C16.0608 21.5637 16.1828 21.5394 16.2967 21.4922C16.4106 21.4451 16.5141 21.3759 16.6013 21.2888L22.2263 15.6638C22.3136 15.5767 22.3828 15.4732 22.4301 15.3593C22.4773 15.2454 22.5017 15.1233 22.5017 15C22.5017 14.8767 22.4773 14.7546 22.4301 14.6407C22.3828 14.5268 22.3136 14.4233 22.2263 14.3362L16.6013 8.71125C16.5141 8.62408 16.4106 8.55494 16.2967 8.50777C16.1828 8.4606 16.0608 8.43632 15.9375 8.43632C15.8142 8.43632 15.6922 8.4606 15.5783 8.50777C15.4644 8.55494 15.3609 8.62408 15.2737 8.71125C15.1866 8.79841 15.1174 8.90189 15.0703 9.01578C15.0231 9.12967 14.9988 9.25173 14.9988 9.375C14.9988 9.49827 15.0231 9.62033 15.0703 9.73422C15.1174 9.84811 15.1866 9.95159 15.2737 10.0388L19.2994 14.0625H8.4375Z"/>
</mask>
<path d="M15 1.875L15 -0.125L15 1.875ZM15 30L15 32L15 30ZM0 15L-2 15L0 15ZM15 0L15 -2L15 0ZM7.5 15L9.5 15L7.5 15ZM19.2994 15.9375L20.7133 17.352L24.1294 13.9375H19.2994V15.9375ZM15.2737 19.9612L13.8599 18.5467L13.8595 18.547L15.2737 19.9612ZM14.9988 20.625L16.9988 20.625L14.9988 20.625ZM15.9375 21.5637V19.5637V21.5637ZM22.2263 15.6638L20.8138 14.2477L20.812 14.2495L22.2263 15.6638ZM22.2263 14.3362L20.812 15.7505L20.8138 15.7522L22.2263 14.3362ZM14.9988 9.375L16.9988 9.375L14.9988 9.375ZM15.2737 10.0388L13.8595 11.453L13.8599 11.4533L15.2737 10.0388ZM19.2994 14.0625V16.0625H24.1294L20.7133 12.648L19.2994 14.0625ZM-0.125 15C-0.125 19.0114 1.46852 22.8585 4.30501 25.695L7.13344 22.8666C5.04709 20.7802 3.875 17.9505 3.875 15H-0.125ZM4.30501 25.695C7.1415 28.5315 10.9886 30.125 15 30.125V26.125C12.0495 26.125 9.21978 24.9529 7.13344 22.8666L4.30501 25.695ZM15 30.125C19.0114 30.125 22.8585 28.5315 25.695 25.695L22.8666 22.8666C20.7802 24.9529 17.9505 26.125 15 26.125V30.125ZM25.695 25.695C28.5315 22.8585 30.125 19.0114 30.125 15H26.125C26.125 17.9505 24.9529 20.7802 22.8666 22.8666L25.695 25.695ZM30.125 15C30.125 10.9886 28.5315 7.1415 25.695 4.30501L22.8666 7.13344C24.9529 9.21978 26.125 12.0495 26.125 15H30.125ZM25.695 4.30501C22.8585 1.46852 19.0114 -0.125 15 -0.125V3.875C17.9505 3.875 20.7802 5.04709 22.8666 7.13344L25.695 4.30501ZM15 -0.125C10.9886 -0.125 7.1415 1.46852 4.30501 4.30501L7.13344 7.13344C9.21978 5.04709 12.0495 3.875 15 3.875L15 -0.125ZM4.30501 4.30501C1.46852 7.1415 -0.125 10.9886 -0.125 15L3.875 15C3.875 12.0495 5.04709 9.21978 7.13344 7.13344L4.30501 4.30501ZM28 15C28 18.4478 26.6304 21.7544 24.1924 24.1924L27.0208 27.0208C30.2089 23.8327 32 19.5087 32 15L28 15ZM24.1924 24.1924C21.7544 26.6304 18.4478 28 15 28L15 32C19.5087 32 23.8327 30.2089 27.0208 27.0208L24.1924 24.1924ZM15 28C11.5522 28 8.24558 26.6304 5.80761 24.1924L2.97918 27.0208C6.1673 30.2089 10.4913 32 15 32L15 28ZM5.80761 24.1924C3.36964 21.7544 2 18.4478 2 15L-2 15C-2 19.5087 -0.208933 23.8327 2.97918 27.0208L5.80761 24.1924ZM2 15C2 11.5522 3.36964 8.24558 5.80761 5.80761L2.97918 2.97918C-0.208933 6.1673 -2 10.4913 -2 15H2ZM5.80761 5.80761C8.24558 3.36964 11.5522 2 15 2L15 -2C10.4913 -2 6.1673 -0.208933 2.97918 2.97918L5.80761 5.80761ZM15 2C18.4478 2 21.7544 3.36964 24.1924 5.80761L27.0208 2.97918C23.8327 -0.208933 19.5087 -2 15 -2L15 2ZM24.1924 5.80761C26.6304 8.24558 28 11.5522 28 15L32 15C32 10.4913 30.2089 6.1673 27.0208 2.97918L24.1924 5.80761ZM8.4375 12.0625C7.65843 12.0625 6.91126 12.372 6.36037 12.9229L9.1888 15.7513C8.98954 15.9506 8.71929 16.0625 8.4375 16.0625V12.0625ZM6.36037 12.9229C5.80949 13.4738 5.5 14.2209 5.5 15L9.5 15C9.5 15.2818 9.38806 15.552 9.1888 15.7513L6.36037 12.9229ZM5.5 15C5.5 15.7791 5.80949 16.5262 6.36037 17.0771L9.1888 14.2487C9.38806 14.448 9.5 14.7182 9.5 15L5.5 15ZM6.36037 17.0771C6.91126 17.628 7.65843 17.9375 8.4375 17.9375V13.9375C8.71929 13.9375 8.98954 14.0494 9.1888 14.2487L6.36037 17.0771ZM8.4375 17.9375H19.2994V13.9375H8.4375V17.9375ZM17.8855 14.523L13.8599 18.5467L16.6876 21.3758L20.7133 17.352L17.8855 14.523ZM13.8595 18.547C13.5867 18.8199 13.3702 19.1439 13.2225 19.5004L16.918 21.0311C16.8647 21.1599 16.7865 21.2769 16.688 21.3755L13.8595 18.547ZM13.2225 19.5004C13.0748 19.857 12.9988 20.2391 12.9988 20.625L16.9988 20.625C16.9988 20.7644 16.9714 20.9024 16.918 21.0311L13.2225 19.5004ZM12.9988 20.625C12.9988 21.0109 13.0748 21.393 13.2225 21.7496L16.918 20.2189C16.9714 20.3476 16.9988 20.4856 16.9988 20.625L12.9988 20.625ZM13.2225 21.7496C13.3702 22.1061 13.5867 22.4301 13.8595 22.703L16.688 19.8745C16.7865 19.9731 16.8647 20.0901 16.918 20.2189L13.2225 21.7496ZM13.8595 22.703C14.1324 22.9758 14.4564 23.1923 14.8129 23.34L16.3436 19.6445C16.4724 19.6978 16.5894 19.776 16.688 19.8745L13.8595 22.703ZM14.8129 23.34C15.1695 23.4877 15.5516 23.5637 15.9375 23.5637V19.5637C16.0769 19.5637 16.2149 19.5911 16.3436 19.6445L14.8129 23.34ZM15.9375 23.5637C16.3234 23.5637 16.7055 23.4877 17.0621 23.34L15.5314 19.6445C15.6601 19.5911 15.7981 19.5637 15.9375 19.5637L15.9375 23.5637ZM17.0621 23.34C17.4186 23.1923 17.7426 22.9758 18.0155 22.703L15.187 19.8745C15.2856 19.776 15.4026 19.6978 15.5314 19.6445L17.0621 23.34ZM18.0155 22.703L23.6405 17.078L20.812 14.2495L15.187 19.8745L18.0155 22.703ZM23.6387 17.0798C23.9122 16.8069 24.1293 16.4827 24.2774 16.1258L20.5828 14.5928C20.6364 14.4637 20.7149 14.3465 20.8138 14.2478L23.6387 17.0798ZM24.2774 16.1258C24.4254 15.769 24.5017 15.3864 24.5017 15H20.5017C20.5017 14.8602 20.5292 14.7219 20.5828 14.5928L24.2774 16.1258ZM24.5017 15C24.5017 14.6136 24.4254 14.231 24.2774 13.8742L20.5828 15.4072C20.5292 15.2781 20.5017 15.1398 20.5017 15H24.5017ZM24.2774 13.8742C24.1293 13.5173 23.9122 13.1931 23.6387 12.9202L20.8138 15.7522C20.7149 15.6535 20.6364 15.5363 20.5828 15.4072L24.2774 13.8742ZM23.6405 12.922L18.0155 7.29704L15.187 10.1255L20.812 15.7505L23.6405 12.922ZM18.0155 7.29704C17.7426 7.02416 17.4186 6.80769 17.0621 6.66001L15.5314 10.3555C15.4026 10.3022 15.2856 10.224 15.187 10.1255L18.0155 7.29704ZM17.0621 6.66001C16.7055 6.51233 16.3234 6.43632 15.9375 6.43632V10.4363C15.7981 10.4363 15.6601 10.4089 15.5314 10.3555L17.0621 6.66001ZM15.9375 6.43632C15.5516 6.43632 15.1695 6.51233 14.8129 6.66001L16.3436 10.3555C16.2149 10.4089 16.0769 10.4363 15.9375 10.4363V6.43632ZM14.8129 6.66001C14.4564 6.80769 14.1324 7.02416 13.8595 7.29704L16.688 10.1255C16.5894 10.224 16.4724 10.3022 16.3436 10.3555L14.8129 6.66001ZM13.8595 7.29704C13.5867 7.56992 13.3702 7.89387 13.2225 8.25041L16.918 9.78115C16.8647 9.90991 16.7865 10.0269 16.688 10.1255L13.8595 7.29704ZM13.2225 8.25041C13.0748 8.60695 12.9988 8.98909 12.9988 9.375L16.9988 9.375C16.9988 9.51437 16.9714 9.65238 16.918 9.78115L13.2225 8.25041ZM12.9988 9.375C12.9988 9.76091 13.0748 10.143 13.2225 10.4996L16.918 8.96885C16.9714 9.09762 16.9988 9.23563 16.9988 9.375L12.9988 9.375ZM13.2225 10.4996C13.3702 10.8561 13.5867 11.1801 13.8595 11.453L16.688 8.62454C16.7865 8.72309 16.8647 8.84009 16.918 8.96885L13.2225 10.4996ZM13.8599 11.4533L17.8855 15.477L20.7133 12.648L16.6876 8.62421L13.8599 11.4533ZM19.2994 12.0625H8.4375V16.0625H19.2994V12.0625Z" fill="#ED1C24" mask="url(#path-1-inside-1)"/>
</svg>
