<svg width="64" height="64" viewBox="0 0 64 64" fill="none" xmlns="http://www.w3.org/2000/svg">
<circle cx="32" cy="32" r="28" fill="black" stroke="#101010" stroke-width="8"/>
<path d="M40 33.4949C40 35.3986 39.3255 36.7943 37.9764 37.6821C36.6274 38.5607 34.7547 39 32.3585 39H25V20H31.9198C34.4292 20 36.2264 20.3569 37.3113 21.0708C38.3962 21.7755 38.9387 22.8967 38.9387 24.4342C38.9387 25.6149 38.6415 26.5713 38.0472 27.3035C37.4623 28.0356 36.5425 28.5253 35.2877 28.7724C36.9292 28.9921 38.1226 29.4954 38.8679 30.2825C39.6226 31.0696 40 32.1404 40 33.4949ZM34.9057 25.2854C34.9057 24.5624 34.6321 24.0636 34.0849 23.789C33.5377 23.5053 32.6887 23.3634 31.5377 23.3634H28.9906V27.4408H31.4245C32.6038 27.4408 33.4764 27.2806 34.0425 26.9603C34.6179 26.6399 34.9057 26.0816 34.9057 25.2854ZM35.9245 33.1517C35.9245 32.3006 35.6274 31.7011 35.033 31.3533C34.4387 30.9964 33.3255 30.8179 31.6934 30.8179H28.9906V35.5679H31.0142C32.5708 35.5679 33.6415 35.4947 34.2264 35.3483C34.8208 35.2018 35.25 34.9547 35.5142 34.6069C35.7877 34.2592 35.9245 33.7741 35.9245 33.1517Z" fill="white"/>
<rect x="25" y="41" width="15" height="3" fill="#ED1C24"/>
</svg>
