<svg width="25" height="22" viewBox="0 0 25 22" fill="none" xmlns="http://www.w3.org/2000/svg">
<path d="M9.91934 10.3529C12.6585 10.3529 14.879 8.03536 14.879 5.17647C14.879 2.31758 12.6585 0 9.91934 0C7.18022 0 4.95972 2.31758 4.95972 5.17647C4.95972 8.03536 7.18022 10.3529 9.91934 10.3529Z" fill="#ED1C24"/>
<path d="M10.75 11.673C10.4772 11.66 10.2044 11.6471 9.91925 11.6471C6.91868 11.6471 4.11649 12.5141 1.72347 14.0024C0.632353 14.6753 0 15.9435 0 17.2765V20.7059H11.4815C10.6058 19.402 10.0767 17.8792 9.94821 16.2924C9.81971 14.7057 10.0964 13.1118 10.75 11.673V11.673ZM23.2483 15.5294C23.2483 15.2447 23.2111 14.9859 23.1739 14.7141L24.5874 13.4071L23.3474 11.1682L21.5496 11.8024C21.1528 11.453 20.7064 11.1812 20.2105 10.9871L19.8385 9.05884H17.3587L16.9867 10.9871C16.4908 11.1812 16.0444 11.453 15.6476 11.8024L13.8498 11.1682L12.6099 13.4071L14.0233 14.7141C13.9861 14.9859 13.949 15.2447 13.949 15.5294C13.949 15.8141 13.9861 16.073 14.0233 16.3447L12.6099 17.6518L13.8498 19.8906L15.6476 19.2565C16.0444 19.6059 16.4908 19.8777 16.9867 20.0718L17.3587 22H19.8385L20.2105 20.0718C20.7064 19.8777 21.1528 19.6059 21.5496 19.2565L23.3474 19.8906L24.5874 17.6518L23.1739 16.3447C23.2111 16.073 23.2483 15.8141 23.2483 15.5294V15.5294ZM18.5986 18.1177C17.2347 18.1177 16.1188 16.953 16.1188 15.5294C16.1188 14.1059 17.2347 12.9412 18.5986 12.9412C19.9625 12.9412 21.0784 14.1059 21.0784 15.5294C21.0784 16.953 19.9625 18.1177 18.5986 18.1177Z" fill="#ED1C24"/>
</svg>
